<svg xmlns="http://www.w3.org/2000/svg" xmlns:xlink="http://www.w3.org/1999/xlink" version="1.1" x="0px" y="0px" viewBox="0 0 80 80" enable-background="new 0 0 80 80" xml:space="preserve"><path d="M55.393,13.445c-1.197-0.149-6.282,13.761-6.282,13.761L31.91,26.607c0,0-4.188-13.163-6.582-13.163  c-2.393,0-3.291,25.727-15.854,41.282C21.888,74.919,59.58,64.3,63.619,58.915C67.657,53.53,56.589,13.594,55.393,13.445z   M28.32,55.924c-4.048,0-7.083-4.416-7.083-9.124c0-4.709,3.158-10.77,7.206-10.77s7.206,6.51,7.206,11.218  C35.649,51.957,32.368,55.924,28.32,55.924z M50.297,55.924c-4.047,0-7.082-4.416-7.082-9.124c0-4.709,3.158-10.77,7.205-10.77  c4.048,0,7.206,6.51,7.206,11.218C57.626,51.957,54.345,55.924,50.297,55.924z"/><ellipse cx="28.619" cy="46.039" rx="1.442" ry="9.632"/><ellipse cx="50.307" cy="46.039" rx="1.442" ry="9.632"/></svg>